<mxfile host="65bd71144e">
    <diagram id="bO22X0G7B_827rKy6K-v" name="Page-1">
        <mxGraphModel dx="1374" dy="-2948" grid="1" gridSize="10" guides="1" tooltips="1" connect="1" arrows="1" fold="1" page="1" pageScale="1" pageWidth="850" pageHeight="1100" math="0" shadow="0">
            <root>
                <mxCell id="0"/>
                <mxCell id="1" parent="0"/>
                <mxCell id="2" value="domain - Mission:&lt;br&gt;participating replace evolve the legacy financial system.&lt;br&gt;crypto improvement&lt;br&gt;utxo chains with aditional abilities (with a focus on ravencoin and evrmore currently)&lt;br&gt;&lt;br&gt;users:&lt;br&gt;enterprise, individuals&lt;br&gt;&lt;br&gt;products&lt;br&gt;App,&lt;br&gt;&lt;br&gt;browser extension [login, authentication, integration via perimission api (see EIP)] , desktop app (qt?), &lt;br&gt;&lt;br&gt;b2b (whitelabeling? ipfs services? block cipher? business-level api backend? extensibility enterprise security token?),&lt;br&gt;&lt;br&gt;decentralized swaps/exchange (decentralized gambling, etc)." style="text;html=1;strokeColor=none;fillColor=none;align=left;verticalAlign=middle;whiteSpace=wrap;rounded=0;" parent="1" vertex="1">
                    <mxGeometry x="938.75" y="3342" width="657.5" height="278" as="geometry"/>
                </mxCell>
                <mxCell id="3" value="subdomains:&lt;br&gt;&lt;br&gt;App (seciotns, wallet, manage, swap)&lt;br&gt;browser etension (all of app subdomains, plus integration with other stuff)&lt;br&gt;&lt;br&gt;Integration could be domain and ways of integration could be the subdomains." style="text;html=1;strokeColor=none;fillColor=none;align=left;verticalAlign=middle;whiteSpace=wrap;rounded=0;" parent="1" vertex="1">
                    <mxGeometry x="1613" y="3392" width="614" height="129" as="geometry"/>
                </mxCell>
                <mxCell id="4" value="Mission:&lt;br&gt;&lt;span style=&quot;text-align: left&quot;&gt;Replace the legacy financial system&lt;/span&gt;" style="rounded=1;whiteSpace=wrap;html=1;" parent="1" vertex="1">
                    <mxGeometry x="120" y="3345" width="717" height="60" as="geometry"/>
                </mxCell>
                <mxCell id="5" value="Enterprise" style="rounded=1;whiteSpace=wrap;html=1;" parent="1" vertex="1">
                    <mxGeometry x="120" y="3421" width="347" height="60" as="geometry"/>
                </mxCell>
                <mxCell id="6" value="Domain" style="text;html=1;strokeColor=none;fillColor=none;align=center;verticalAlign=middle;whiteSpace=wrap;rounded=0;" parent="1" vertex="1">
                    <mxGeometry x="2" y="3360" width="60" height="30" as="geometry"/>
                </mxCell>
                <mxCell id="7" value="Users" style="text;html=1;strokeColor=none;fillColor=none;align=center;verticalAlign=middle;whiteSpace=wrap;rounded=0;" parent="1" vertex="1">
                    <mxGeometry x="2" y="3436" width="60" height="30" as="geometry"/>
                </mxCell>
                <mxCell id="8" value="Individuals" style="rounded=1;whiteSpace=wrap;html=1;" parent="1" vertex="1">
                    <mxGeometry x="490" y="3421" width="347" height="60" as="geometry"/>
                </mxCell>
                <mxCell id="9" value="Browser Extension" style="rounded=1;whiteSpace=wrap;html=1;" parent="1" vertex="1">
                    <mxGeometry x="120" y="3498" width="347" height="60" as="geometry"/>
                </mxCell>
                <mxCell id="10" value="Users" style="text;html=1;strokeColor=none;fillColor=none;align=center;verticalAlign=middle;whiteSpace=wrap;rounded=0;" parent="1" vertex="1">
                    <mxGeometry x="2" y="3517" width="60" height="30" as="geometry"/>
                </mxCell>
                <mxCell id="11" value="Mobile App" style="rounded=1;whiteSpace=wrap;html=1;" parent="1" vertex="1">
                    <mxGeometry x="490" y="3498" width="347" height="60" as="geometry"/>
                </mxCell>
                <mxCell id="12" value="Market Segmentation:&lt;br&gt;&lt;br&gt;Casual crypto users (who just want a &quot;ravencoin wallet&quot;)&lt;br&gt;Casual consumers (white label consumers)&lt;br&gt;Businesses (white label costomers)&lt;br&gt;Skilled crypto users (people that understand crypto and know what a wallet is)&lt;br&gt;NFT and asset Creators (people that want to use the extension in order to use whatever platform they're using)&lt;br&gt;" style="text;html=1;strokeColor=none;fillColor=none;align=left;verticalAlign=middle;whiteSpace=wrap;rounded=0;" vertex="1" parent="1">
                    <mxGeometry x="938.75" y="3795" width="614" height="129" as="geometry"/>
                </mxCell>
            </root>
        </mxGraphModel>
    </diagram>
</mxfile>